<?xml version="1.0" encoding="UTF-8"?>
<svg xmlns="http://www.w3.org/2000/svg" xmlns:xlink="http://www.w3.org/1999/xlink" width="50pt" height="44pt" viewBox="0 0 50 44" version="1.1">
<g id="surface1">
<path style=" stroke:none;fill-rule:nonzero;fill:rgb(0%,0%,0%);fill-opacity:1;" d="M 1.09375 43.84375 C 0.386719 43.519531 0.109375 43.132812 0.0195312 42.335938 C -0.046875 41.722656 0.00390625 41.597656 1.082031 39.746094 C 1.378906 39.234375 1.667969 38.738281 1.722656 38.640625 C 1.964844 38.21875 2.53125 37.246094 2.644531 37.0625 C 2.710938 36.949219 2.796875 36.792969 2.839844 36.707031 C 2.878906 36.625 3.148438 36.160156 3.441406 35.675781 C 3.734375 35.1875 3.972656 34.777344 3.972656 34.757812 C 3.972656 34.695312 6.332031 30.5625 6.816406 29.773438 C 6.9375 29.582031 7.066406 29.355469 7.101562 29.273438 C 7.136719 29.1875 7.214844 29.054688 7.265625 28.96875 C 7.535156 28.558594 8.269531 27.277344 8.269531 27.222656 C 8.269531 27.1875 8.382812 26.972656 8.523438 26.75 C 8.664062 26.527344 9.292969 25.445312 9.917969 24.347656 C 10.546875 23.25 11.171875 22.167969 11.3125 21.941406 C 11.453125 21.71875 11.566406 21.515625 11.566406 21.488281 C 11.566406 21.449219 12.425781 19.972656 12.765625 19.421875 C 12.816406 19.339844 13.074219 18.886719 13.335938 18.417969 C 13.597656 17.945312 13.871094 17.472656 13.9375 17.363281 C 14.003906 17.25 14.089844 17.09375 14.132812 17.011719 C 14.171875 16.925781 14.398438 16.539062 14.636719 16.144531 C 14.875 15.75 15.066406 15.394531 15.066406 15.359375 C 15.066406 15.324219 15.214844 15.058594 15.398438 14.769531 C 15.582031 14.480469 15.867188 13.996094 16.03125 13.695312 C 16.65625 12.546875 17.316406 11.429688 17.390625 11.398438 C 17.433594 11.378906 17.464844 11.320312 17.464844 11.265625 C 17.464844 11.210938 17.667969 10.832031 17.914062 10.421875 C 18.160156 10.011719 18.363281 9.65625 18.363281 9.628906 C 18.363281 9.601562 18.613281 9.167969 18.914062 8.667969 C 19.21875 8.167969 19.464844 7.742188 19.464844 7.71875 C 19.464844 7.699219 19.695312 7.28125 19.976562 6.792969 C 20.257812 6.304688 20.761719 5.429688 21.097656 4.847656 C 21.429688 4.269531 22.03125 3.238281 22.433594 2.558594 C 22.835938 1.882812 23.164062 1.300781 23.164062 1.273438 C 23.164062 1.242188 23.285156 1.058594 23.433594 0.859375 C 23.851562 0.308594 24.371094 0.0234375 24.960938 0.0234375 C 25.765625 0.0234375 26.382812 0.507812 26.949219 1.582031 C 27.066406 1.804688 27.207031 2.050781 27.261719 2.136719 C 27.4375 2.417969 28.421875 4.09375 28.496094 4.246094 C 28.535156 4.328125 28.621094 4.488281 28.691406 4.597656 C 28.753906 4.707031 28.96875 5.070312 29.160156 5.402344 C 29.351562 5.734375 29.5625 6.097656 29.628906 6.207031 C 29.695312 6.316406 29.816406 6.542969 29.898438 6.707031 C 29.980469 6.875 30.1875 7.234375 30.355469 7.511719 C 30.519531 7.789062 30.6875 8.082031 30.726562 8.164062 C 30.789062 8.296875 31.398438 9.351562 31.65625 9.773438 C 31.769531 9.957031 32.433594 11.113281 32.863281 11.886719 C 33.035156 12.1875 33.304688 12.652344 33.464844 12.917969 C 33.625 13.179688 33.757812 13.421875 33.757812 13.453125 C 33.757812 13.488281 33.894531 13.714844 34.058594 13.960938 C 34.222656 14.207031 34.355469 14.433594 34.355469 14.46875 C 34.355469 14.5 34.539062 14.8125 34.757812 15.164062 C 34.976562 15.511719 35.15625 15.828125 35.15625 15.863281 C 35.15625 15.898438 35.378906 16.292969 35.644531 16.746094 C 35.914062 17.195312 36.222656 17.722656 36.332031 17.914062 C 36.730469 18.640625 37.691406 20.304688 38.167969 21.09375 C 38.433594 21.546875 38.65625 21.941406 38.65625 21.972656 C 38.65625 22.003906 38.804688 22.269531 38.988281 22.5625 C 39.171875 22.851562 39.492188 23.40625 39.703125 23.792969 C 39.914062 24.179688 40.183594 24.65625 40.304688 24.847656 C 40.425781 25.042969 40.636719 25.40625 40.773438 25.65625 C 40.914062 25.902344 41.375 26.71875 41.804688 27.460938 C 42.234375 28.210938 42.664062 28.96875 42.761719 29.152344 C 42.859375 29.332031 42.980469 29.535156 43.035156 29.601562 C 43.089844 29.667969 43.242188 29.929688 43.375 30.175781 C 43.613281 30.625 45.015625 33.066406 45.367188 33.644531 C 45.46875 33.808594 45.582031 34.011719 45.617188 34.09375 C 45.65625 34.179688 45.785156 34.40625 45.902344 34.597656 C 46.019531 34.792969 46.292969 35.265625 46.503906 35.652344 C 46.714844 36.039062 46.949219 36.46875 47.023438 36.609375 C 47.101562 36.746094 47.238281 36.980469 47.332031 37.132812 C 47.527344 37.441406 48.457031 39.050781 48.832031 39.722656 C 48.96875 39.972656 49.257812 40.464844 49.472656 40.816406 C 50.269531 42.125 50.023438 43.300781 48.839844 43.839844 C 48.40625 44.039062 48.171875 44.042969 24.960938 44.042969 C 1.949219 44.042969 1.515625 44.039062 1.09375 43.84375 Z M 1.09375 43.84375 "/>
<path style=" stroke:none;fill-rule:nonzero;fill:rgb(100%,83.921569%,24.705882%);fill-opacity:1;" d="M 44.710938 40.1875 C 44.742188 40.105469 44.59375 39.757812 44.378906 39.40625 C 44.035156 38.847656 43.484375 37.890625 42.828125 36.714844 C 42.71875 36.519531 42.371094 35.929688 42.058594 35.402344 C 41.480469 34.433594 41.320312 34.15625 40.429688 32.539062 C 40.152344 32.039062 39.851562 31.519531 39.757812 31.382812 C 39.664062 31.246094 39.320312 30.65625 38.996094 30.074219 C 38.671875 29.496094 38.351562 28.929688 38.285156 28.820312 C 38.21875 28.707031 38.132812 28.550781 38.089844 28.46875 C 38.050781 28.386719 37.855469 28.046875 37.65625 27.714844 C 37.457031 27.382812 37.261719 27.042969 37.226562 26.960938 C 37.1875 26.878906 37.113281 26.742188 37.058594 26.660156 C 36.839844 26.320312 36.132812 25.101562 35.132812 23.339844 C 34.554688 22.320312 33.984375 21.324219 33.871094 21.132812 C 33.753906 20.9375 33.628906 20.710938 33.589844 20.628906 C 33.550781 20.546875 33.28125 20.082031 32.988281 19.59375 C 32.695312 19.109375 32.457031 18.691406 32.457031 18.667969 C 32.457031 18.640625 32.285156 18.339844 32.074219 17.992188 C 31.863281 17.644531 31.574219 17.148438 31.429688 16.886719 C 30.898438 15.929688 28.714844 12.121094 28.359375 11.53125 C 28.160156 11.199219 27.964844 10.863281 27.925781 10.78125 C 27.890625 10.695312 27.722656 10.402344 27.558594 10.125 C 26.953125 9.117188 25.984375 7.414062 25.523438 6.550781 C 25.253906 6.046875 25.019531 5.808594 24.878906 5.894531 C 24.832031 5.921875 24.546875 6.367188 24.25 6.882812 C 23.953125 7.394531 23.660156 7.902344 23.589844 8.015625 C 23.523438 8.125 23.4375 8.285156 23.398438 8.367188 C 23.355469 8.449219 23.09375 8.902344 22.8125 9.371094 C 22.53125 9.84375 22.269531 10.292969 22.230469 10.378906 C 22.195312 10.460938 22.121094 10.597656 22.066406 10.679688 C 21.851562 11.011719 21.164062 12.191406 21.164062 12.230469 C 21.164062 12.253906 20.65625 13.144531 20.035156 14.214844 C 19.414062 15.28125 18.625 16.652344 18.28125 17.261719 C 17.9375 17.871094 17.613281 18.433594 17.5625 18.519531 C 17.070312 19.332031 16.667969 20.039062 16.667969 20.078125 C 16.667969 20.105469 16.558594 20.300781 16.429688 20.507812 C 16.300781 20.714844 15.574219 21.96875 14.816406 23.292969 C 14.058594 24.617188 13.355469 25.839844 13.253906 26.003906 C 13.152344 26.171875 13.039062 26.375 13 26.457031 C 12.960938 26.539062 12.757812 26.890625 12.550781 27.238281 C 12.339844 27.585938 12.167969 27.890625 12.167969 27.917969 C 12.167969 27.945312 12.0625 28.140625 11.929688 28.347656 C 11.703125 28.710938 9.207031 33.054688 8.691406 33.996094 C 8.550781 34.246094 8.214844 34.832031 7.941406 35.300781 C 7.667969 35.773438 7.125 36.699219 6.742188 37.363281 C 6.355469 38.027344 5.84375 38.90625 5.601562 39.316406 C 5.359375 39.726562 5.1875 40.121094 5.214844 40.195312 C 5.292969 40.398438 44.632812 40.390625 44.710938 40.1875 Z M 44.710938 40.1875 "/>
<path style=" stroke:none;fill-rule:nonzero;fill:rgb(0%,0%,0%);fill-opacity:1;" d="M 24.023438 33.246094 C 23.71875 33.246094 23.472656 33.496094 23.472656 33.804688 C 23.472656 34.109375 23.71875 34.359375 24.023438 34.359375 L 24.027344 34.359375 C 23.859375 34.746094 23.742188 35.230469 23.933594 35.707031 C 24.453125 36.992188 25.632812 37.210938 27.023438 37.210938 L 28.421875 37.210938 C 28.535156 37.441406 28.632812 37.679688 28.636719 37.933594 C 28.660156 39.511719 28.097656 39.707031 27.632812 40.023438 L 27.4375 40.023438 C 27.273438 40.023438 27.140625 40.15625 27.140625 40.320312 C 27.140625 40.488281 27.273438 40.621094 27.4375 40.621094 L 31.054688 40.621094 C 31.105469 40.621094 31.15625 40.605469 31.199219 40.582031 L 31.480469 40.582031 L 31.480469 33.246094 Z M 24.023438 33.246094 "/>
<path style=" stroke:none;fill-rule:nonzero;fill:rgb(0%,0%,0%);fill-opacity:1;" d="M 31.570312 28.378906 L 31.6875 28.378906 C 31.894531 28.378906 32.0625 28.546875 32.0625 28.753906 L 32.0625 40.246094 C 32.0625 40.453125 31.894531 40.621094 31.6875 40.621094 L 31.570312 40.621094 C 31.363281 40.621094 31.195312 40.453125 31.195312 40.246094 L 31.195312 28.753906 C 31.195312 28.546875 31.363281 28.378906 31.570312 28.378906 Z M 31.570312 28.378906 "/>
<path style=" stroke:none;fill-rule:nonzero;fill:rgb(0%,0%,0%);fill-opacity:1;" d="M 21.023438 32.042969 C 21.722656 32.042969 22.285156 32.519531 22.285156 33.113281 L 22.285156 39.523438 C 22.285156 40.117188 21.722656 40.59375 21.023438 40.59375 C 20.320312 40.59375 19.757812 40.117188 19.757812 39.523438 L 19.757812 33.113281 C 19.757812 32.519531 20.320312 32.042969 21.023438 32.042969 Z M 21.023438 32.042969 "/>
<path style=" stroke:none;fill-rule:nonzero;fill:rgb(0%,0%,0%);fill-opacity:1;" d="M 20.074219 32.242188 C 20.074219 31.628906 20.5625 31.132812 21.175781 31.132812 L 27.785156 31.132812 C 28.398438 31.132812 28.890625 31.628906 28.890625 32.242188 C 28.890625 32.855469 28.398438 33.351562 27.785156 33.351562 L 21.175781 33.351562 C 20.5625 33.351562 20.074219 32.855469 20.074219 32.242188 Z M 20.074219 32.242188 "/>
<path style=" stroke:none;fill-rule:nonzero;fill:rgb(0%,0%,0%);fill-opacity:1;" d="M 28.816406 21.265625 C 29.933594 21.265625 30.832031 22.121094 30.832031 23.183594 L 30.832031 31.429688 C 30.832031 32.492188 29.933594 33.351562 28.816406 33.351562 C 27.699219 33.351562 26.800781 32.492188 26.800781 31.429688 L 26.800781 23.183594 C 26.800781 22.121094 27.699219 21.265625 28.816406 21.265625 Z M 28.816406 21.265625 "/>
<path style=" stroke:none;fill-rule:nonzero;fill:rgb(0%,0%,0%);fill-opacity:1;" d="M 29.566406 17.820312 C 29.566406 19.507812 28.203125 20.882812 26.523438 20.882812 C 24.84375 20.882812 23.480469 19.507812 23.480469 17.820312 C 23.480469 16.132812 24.84375 14.757812 26.523438 14.757812 C 28.203125 14.757812 29.566406 16.132812 29.566406 17.820312 Z M 29.566406 17.820312 "/>
<path style=" stroke:none;fill-rule:nonzero;fill:rgb(0%,0%,0%);fill-opacity:1;" d="M 16.316406 23.132812 C 16.089844 23.195312 15.957031 23.425781 16.019531 23.652344 L 17.675781 29.871094 C 17.722656 30.046875 17.875 30.167969 18.046875 30.183594 C 18.082031 30.542969 18.253906 30.816406 18.464844 30.816406 L 24.867188 30.816406 C 25.097656 30.816406 25.285156 30.476562 25.285156 30.050781 C 25.285156 29.628906 25.097656 29.289062 24.867188 29.289062 L 18.464844 29.289062 C 18.4375 29.289062 18.414062 29.292969 18.394531 29.296875 L 16.832031 23.433594 C 16.769531 23.207031 16.539062 23.074219 16.316406 23.132812 Z M 16.316406 23.132812 "/>
<path style=" stroke:none;fill-rule:nonzero;fill:rgb(0%,0%,0%);fill-opacity:1;" d="M 28.929688 21.738281 C 29.378906 22.167969 29.378906 22.890625 28.933594 23.363281 L 22.253906 29.0625 C 21.808594 29.535156 21.089844 29.570312 20.640625 29.140625 C 20.191406 28.714844 20.191406 27.988281 20.636719 27.515625 L 27.3125 21.816406 C 27.761719 21.347656 28.480469 21.3125 28.929688 21.738281 Z M 28.929688 21.738281 "/>
<path style=" stroke:none;fill-rule:nonzero;fill:rgb(0%,0%,0%);fill-opacity:1;" d="M 20.796875 32.992188 C 21.40625 32.640625 22.132812 32.765625 22.425781 33.28125 L 25.613281 38.832031 C 25.910156 39.347656 25.65625 40.042969 25.050781 40.394531 C 24.445312 40.746094 23.71875 40.617188 23.425781 40.105469 L 20.234375 34.550781 C 19.941406 34.039062 20.191406 33.34375 20.796875 32.992188 Z M 20.796875 32.992188 "/>
</g>
</svg>
